<svg xmlns="http://www.w3.org/2000/svg" width="268.977" height="152.867" viewBox="0 0 268.977 152.867"><defs><style>.a{fill:#79baaf;}.a,.b{stroke:#065;stroke-miterlimit:10;stroke-width:3px;}.b{fill:none;}</style></defs><g transform="translate(-541.743 -283.963)"><g transform="translate(543.272 285.024)"><g transform="translate(0 1.564)"><path class="a" d="M776.391,381.886l-62.205,29.825a7.5,7.5,0,0,1-4.423.642L588.288,392.9s-9.692-1.542-6.829-9.032,18.148-6.935,41.189-5.505c19.175,1.188,41.669,1.048,50.212.936a7.477,7.477,0,0,0,5.736-2.8l16.515-20.56a7.479,7.479,0,0,0,.957-7.841,148.148,148.148,0,0,0-11.747-21.06c-5.2-7.445-2.779-17.746,8.591-16.3,8.661,1.1,24.3,19.881,32.517,30.5a6.989,6.989,0,0,0,11.008.055l4.492-5.662s12.776-1.1,30.836,30.837" transform="translate(-509.592 -263.711)"/><path class="b" d="M628.809,371.008,590.5,327.841s-1.826-7.4,5.12-8.259c10.243-1.267,65.8,51.426,65.8,51.426" transform="translate(-501.229 -255.701)"/><path class="b" d="M613.871,345.643s17.527-24.487,22.373-24.487,9.911,3.745,6.388,9.142c-1.391,2.127-8.76,14.632-8.76,14.632L648.5,367.757" transform="translate(-480.131 -254.273)"/><path class="b" d="M574.279,371.167l-10.048,6.352a13.657,13.657,0,0,1-18.843-4.245h0a13.657,13.657,0,0,1,4.245-18.841l94.777-59.923h0a4.469,4.469,0,0,1,1.388-6.166l2.849-1.8a4.47,4.47,0,0,1,6.166,1.389l14.6,23.089a4.466,4.466,0,0,1-1.389,6.164l-2.849,1.8a4.471,4.471,0,0,1-6.166-1.389h0l-30.5,19.281Z" transform="translate(-543.272 -285.85)"/><path class="a" d="M590.288,335.516l-32.7,20.673a4.694,4.694,0,0,1-6.475-1.459h0a4.693,4.693,0,0,1,1.459-6.477l79.241-50.1,12.056,3.484Z" transform="translate(-536.908 -274.846)"/><path class="a" d="M617.206,305.531s-16.144,13.88-9.8,25.25a12.482,12.482,0,0,0,14.447,5.928c3.128-.968,6.378-3.294,8.172-8.472C634.21,316.158,617.206,305.531,617.206,305.531Z" transform="translate(-487.234 -268.247)"/></g><g transform="translate(180.318)"><line class="b" x2="29.075" y2="29.075"/><line class="b" x1="29.075" y2="29.075"/></g></g></g></svg>