<svg xmlns="http://www.w3.org/2000/svg" width="207.981" height="205.583" viewBox="0 0 207.981 205.583"><defs><style>.a{fill:none;}.a,.b,.c{stroke:#065;stroke-width:3px;}.a,.b{stroke-miterlimit:10;}.b,.c{fill:#79baaf;}</style></defs><g transform="translate(-240.981 -99.042)"><g transform="translate(242.042 100.542)"><g transform="translate(19.041)"><path class="a" d="M309.865,251.267v15A17.237,17.237,0,0,0,327.1,283.506h0a17.238,17.238,0,0,0,17.237-17.237V124.759h0a5.638,5.638,0,0,0,5.639-5.639v-4.255a5.64,5.64,0,0,0-5.639-5.641H309.865a5.64,5.64,0,0,0-5.639,5.641v4.255a5.638,5.638,0,0,0,5.639,5.639h0v45.535" transform="translate(-163.598 -86.93)"/><path class="a" d="M345.428,147.572v-31.5h0a5.638,5.638,0,0,0,5.639-5.639v-4.257a5.638,5.638,0,0,0-5.639-5.639H310.955a5.638,5.638,0,0,0-5.639,5.639v4.257a5.638,5.638,0,0,0,5.639,5.639h0v31.5a78.735,78.735,0,1,0,34.474,0Z" transform="translate(-249.457 -100.542)"/><path class="b" d="M374.16,150.466a58.4,58.4,0,0,1-116.77,2.111s30.992,25.464,64.693,8.327S374.16,150.466,374.16,150.466Z" transform="translate(-237.022 -24.298)"/><path class="b" d="M310.785,191.2v48.819a5.922,5.922,0,0,0,5.921,5.924h0a5.922,5.922,0,0,0,5.924-5.924V121.71H310.785Z" transform="translate(-153.315 -67.357)"/><circle class="a" cx="10.425" cy="10.425" r="10.425" transform="translate(30.797 96.336)"/><path class="b" d="M270.651,135.175a8.14,8.14,0,1,0,8.14-8.142A8.14,8.14,0,0,0,270.651,135.175Z" transform="translate(-216.233 -59.013)"/><path class="a" d="M295.652,132a43.388,43.388,0,0,1,14.43,24.424" transform="translate(-177.039 -51.231)"/><path class="c" d="M298.43,131.2a3.884,3.884,0,1,1-3.882-3.882A3.883,3.883,0,0,1,298.43,131.2Z" transform="translate(-184.86 -58.563)"/></g><g transform="translate(0 10.581)"><line class="a" x2="39.409" y2="39.409"/><line class="a" x1="39.409" y2="39.409"/></g></g></g></svg>