<svg xmlns="http://www.w3.org/2000/svg" width="30" height="30.999" viewBox="0 0 61 44.999"><defs><style>.a{stroke:#fff;}</style></defs><g transform="translate(0.5 0.498)"><path class="a" d="M16.7,24.955A44.625,44.625,0,0,0,30,26.988a44.625,44.625,0,0,0,13.3-2.033,1,1,0,0,0-.594-1.91,42.507,42.507,0,0,1-25.406,0,1,1,0,1,0-.594,1.91Z"/><path class="a" d="M16.846,18.988A85.637,85.637,0,0,0,30,19.994a85.637,85.637,0,0,0,13.154-1.006,1,1,0,1,0-.308-1.976,84.471,84.471,0,0,1-25.692,0,1,1,0,0,0-.308,1.976Z"/><path class="a" d="M42.569,30.1a28.632,28.632,0,0,1-25.138,0,1,1,0,1,0-.862,1.8,30.6,30.6,0,0,0,26.862,0,1,1,0,1,0-.862-1.8Z"/><path class="a" d="M56,10H50.816A3,3,0,0,0,48,8H46.49a12.337,12.337,0,0,1-9.513-4.68,8.992,8.992,0,0,0-13.952,0A12.338,12.338,0,0,1,13.51,8H12a3,3,0,0,0-2.816,2H4a4,4,0,0,0-4,4v5c0,5.256,4.706,10.093,10.418,10.881A21.557,21.557,0,0,0,28.351,43.907a14.675,14.675,0,0,0,3.3,0A21.557,21.557,0,0,0,49.582,29.881C55.294,29.093,60,24.256,60,19V14A4,4,0,0,0,56,10ZM12,10h1.51A14.336,14.336,0,0,0,24.577,4.58a6.99,6.99,0,0,1,10.849,0A14.332,14.332,0,0,0,46.49,10H48a1,1,0,0,1,1,1v1l-3-.005h-.02A15.834,15.834,0,0,1,33.87,5.84a4.989,4.989,0,0,0-7.747.009,15.821,15.821,0,0,1-12.1,6.144H14L11,12V11a1,1,0,0,1,1-1ZM2,19V14a2,2,0,0,1,2-2H9V22a22.639,22.639,0,0,0,.745,5.723C5.772,26.766,2,23.372,2,19ZM31.442,41.918a12.876,12.876,0,0,1-2.884,0A19.568,19.568,0,0,1,12.12,28.661v-.01A20.5,20.5,0,0,1,11,22V14l3-.005A17.717,17.717,0,0,0,27.675,7.113a2.99,2.99,0,0,1,4.645-.008,17.824,17.824,0,0,0,13.657,6.89H46L49,14v8a20.5,20.5,0,0,1-1.117,6.649v.01A19.568,19.568,0,0,1,31.442,41.918ZM58,19c0,4.372-3.772,7.766-7.745,8.725A22.639,22.639,0,0,0,51,22V12h5a2,2,0,0,1,2,2Z"/></g></svg>
