<svg xmlns="http://www.w3.org/2000/svg" width="23.554" height="23.609" viewBox="0 0 43.554 43.609"><defs><style>.a{stroke:#fff;stroke-width:1.4px;}</style></defs><g transform="translate(0.368 0.7)"><path class="a" d="M137.972,0a6.356,6.356,0,0,0-4.524,1.874l-.264.264-.264-.264A6.4,6.4,0,0,0,122,6.4v.663a6.355,6.355,0,0,0,1.874,4.524l9.312,9.312,9.312-9.312a6.356,6.356,0,0,0,1.874-4.524V6.4a6.405,6.405,0,0,0-6.4-6.4Zm3.915,7.061a3.889,3.889,0,0,1-1.147,2.768l-7.556,7.556-7.556-7.556a3.889,3.889,0,0,1-1.147-2.768V6.4a3.915,3.915,0,0,1,6.683-2.768l2.019,2.019L135.2,3.629A3.915,3.915,0,0,1,141.887,6.4Z" transform="translate(-111.598 0)"/><g transform="translate(0.332 19.574)"><path class="a" d="M41.224,237.594a3.972,3.972,0,0,0-5.349-.088l-8.7,7.622a5.357,5.357,0,0,0-5.3-4.6H14.135a8.836,8.836,0,0,0-5.459,1.9l-8.344,6.5v3.148l9.874-7.7.007-.006a6.342,6.342,0,0,1,3.921-1.364h7.746a2.87,2.87,0,0,1,2.84,2.483H17.3v2.483H27.7l9.815-8.6a1.5,1.5,0,0,1,2,2.238L27.576,252.527H10.635l-7.789,6.621H6.679l4.868-4.138H28.54L41.19,243.444a3.985,3.985,0,0,0,.034-5.85Z" transform="translate(-0.332 -236.514)"/></g></g></svg>
