<svg xmlns="http://www.w3.org/2000/svg" width="23.081" height="23.801" viewBox="0 0 23.081 23.801"><g transform="translate(-18.467 -11.007)"><path d="M41.415,184.894a.291.291,0,0,0,.383-.151c.152-.35.292-.662.429-.957a.291.291,0,1,0-.528-.246c-.139.3-.281.616-.435.97A.291.291,0,0,0,41.415,184.894Z" transform="translate(-21.666 -163.986)"/><path d="M18.888,24.573a.283.283,0,0,0,.042,0,.291.291,0,0,0,.252-.146L20.2,22.666a12.069,12.069,0,0,1,1.388-1.927,9.749,9.749,0,0,0,1.021,5.313,10.4,10.4,0,0,1,1.106,4.138,3.007,3.007,0,0,1-.39,1.745.737.737,0,0,0-.1.654,2.4,2.4,0,0,0,1.034,1.25A7.259,7.259,0,0,0,27.6,34.8c.081.007.173.01.273.01a11.122,11.122,0,0,0,4.719-1.176q.317.02.64.02a11.549,11.549,0,0,0,3.158-.457,6.558,6.558,0,0,0,4.888-4.468,4.884,4.884,0,0,0-.083-3.576c-.3-.343-.82-.32-1.55.069-.064.034-.129.071-.194.109q-.207.119-.426.232a12.7,12.7,0,0,0,.111-4.438A7.4,7.4,0,0,0,36.553,15.9a7.552,7.552,0,0,0-4.292-1.531l.172-1.969a.634.634,0,0,0-.223-.537l-.781-.677a.759.759,0,0,0-.777-.123.657.657,0,0,0-.425.55l-.075.705-1.6.51a9.416,9.416,0,0,0-3.493-.12,6.237,6.237,0,0,0-5.147,4.478,9.82,9.82,0,0,1-.683,1.539,10.2,10.2,0,0,0-.58,5.627.291.291,0,0,0,.241.221Zm11.92-12.9v-.006c0-.036.045-.056.063-.063a.175.175,0,0,1,.176.023l.781.678a.063.063,0,0,1,.025.046l-.176,2.01c-.193,0-.336.013-.417.02a5.3,5.3,0,0,0-.721-.2ZM28.675,13.4l1.409-.448L29.962,14.1a6.1,6.1,0,0,0-2.255.226,3.132,3.132,0,0,1,.969-.922Zm-1.312,1.647A5.246,5.246,0,0,1,31.2,14.98a4.235,4.235,0,0,1,1.425.894.291.291,0,1,0,.426-.4,3.83,3.83,0,0,0-.62-.505,6.936,6.936,0,0,1,3.762,1.389,6.843,6.843,0,0,1,2.358,4.825,11.374,11.374,0,0,1-.219,4.7,30.613,30.613,0,0,1-9.474,2.064,5.762,5.762,0,0,0-2.75.47.734.734,0,0,0-.389.431.757.757,0,0,0,.062.588,7.564,7.564,0,0,0,1.161,1.645.292.292,0,0,0,.429-.4,6.975,6.975,0,0,1-1.073-1.52.185.185,0,0,1-.024-.137.174.174,0,0,1,.093-.089,5.277,5.277,0,0,1,2.854-.381c5.161.533,6.567.24,9.407-1.958,1.776-1.374,2.092-1.109,2.121-1.076a4.923,4.923,0,0,1-.079,3.17,6.032,6.032,0,0,1-4.445,3.932,9.71,9.71,0,0,1-6.008-.08,7.615,7.615,0,0,1-1.452-.71.292.292,0,0,0-.311.493,8.213,8.213,0,0,0,1.563.764,8.909,8.909,0,0,0,1.54.409,12.2,12.2,0,0,1-3.911.705c-3.054-.266-3.722-1.35-3.866-1.8a.157.157,0,0,1,.026-.14c.234-.332,1.3-2.206-.663-6.464a9.857,9.857,0,0,1-1.017-4.351,5.031,5.031,0,0,1,.243-1.525,13.7,13.7,0,0,1,1.045-.9c.42-.327.836-.6,1.239-.871,1.212-.8,2.258-1.5,2.7-3.079,0-.012.007-.023.01-.034ZM37.07,27.01A7.6,7.6,0,0,1,31.985,28.2,29.962,29.962,0,0,0,37.07,27.01ZM19.741,19a10.366,10.366,0,0,0,.722-1.631,5.621,5.621,0,0,1,4.669-4.083,8.118,8.118,0,0,1,1.317-.1c.324,0,.625.018.89.043-3.669,1.243-5.262,2.233-6.947,5.585a.291.291,0,1,0,.521.262c1.51-3,2.791-3.972,6.413-5.225a3.3,3.3,0,0,0-.468.871l-.007.021c-.021.06-.041.121-.059.185-.384,1.372-1.3,1.98-2.462,2.75-.412.273-.838.556-1.275.9a13.225,13.225,0,0,0-3.357,3.8l-.614,1.061A10.033,10.033,0,0,1,19.741,19Z"/><path d="M378.62,162.372a.291.291,0,0,0,.54-.221c-.077-.188-.161-.377-.25-.563a.292.292,0,0,0-.525.253C378.468,162.017,378.547,162.195,378.62,162.372Z" transform="translate(-342.405 -143.11)"/><path d="M388.549,186.321a.291.291,0,0,0-.187.367,6.691,6.691,0,0,1,.236,3.75.291.291,0,0,0,.555.179,7.119,7.119,0,0,0-.236-4.109A.291.291,0,0,0,388.549,186.321Z" transform="translate(-351.912 -166.785)"/></g></svg>