<svg xmlns="http://www.w3.org/2000/svg" width="250.445" height="204.45" viewBox="0 0 250.445 204.45"><defs><style>.a{fill:#79baaf;}.a,.b,.c,.d{stroke:#065;stroke-miterlimit:10;stroke-width:3px;}.b{fill:#87ba78;}.c{fill:#00997f;}.d{fill:none;}</style></defs><g transform="translate(-234.025 -283.706)"><g transform="translate(235.53 285.573)"><g transform="translate(56.345)"><path class="a" d="M325.366,285.573s-152.652,109.852,0,171.2C325.366,456.77,473.261,398.456,325.366,285.573Z" transform="translate(-257.521 -285.573)"/><path class="b" d="M284,306.871V454.885" transform="translate(-216.156 -252.302)"/><path class="c" d="M273.143,329.631l28.087,28.087,28.057-28.057" transform="translate(-233.118 -216.748)"/><path class="c" d="M273.143,311.21,301.23,339.3l28.057-28.057" transform="translate(-233.118 -245.525)"/></g><g transform="translate(0 48.288)"><path class="d" d="M309.479,307.31c-18.2-3.6-41.584-4.074-71.479-.059,0,0-30.264,185.614,121.053,121.054" transform="translate(-235.53 -304.42)"/><line class="d" x2="22.193" y2="22.193" transform="translate(123.525 123.885)"/><line class="d" x2="15.59" y2="15.59" transform="translate(41.056 41.417)"/><line class="d" x2="23.27" transform="translate(62.619 102.322)"/><line class="d" x2="30.067" transform="translate(29.245 68.948)"/></g><g transform="translate(101.717 48.156)"><path class="d" d="M334.884,307.119c18.2-3.6,40.164-3.8,70.062.213,0,0,30.264,185.614-121.054,121.054" transform="translate(-261.698 -304.368)"/><line class="d" x1="22.193" y2="22.193" transform="translate(0 124.017)"/><line class="d" x1="17.965" y2="17.965" transform="translate(86.696 41.549)"/><line class="d" x1="26.138" transform="translate(56.96 102.455)"/><line class="d" x1="32.517" transform="translate(83.956 69.081)"/></g></g></g></svg>